# xmcd
#
# Track frame offsets: 
#        150
#        25236
#        55401
#        82920
#        104455
#        137779
#        157815
#        190295
#        215359
#        240163
#        268221
#        300402
#
# Disc length: 4468 seconds
#
# Revision: 2
# Processed by: cddbd v1.5.2PL0 Copyright (c) Steve Scherf et al.
# Submitted via: ExactAudioCopy v0.99pb5
#
DISCID=9811720c
DTITLE=Various Artist - DJ Deep Presents City To City Part 02 [CD 2 - Unmixed
DTITLE=CD)
DYEAR=2006
DGENRE=House
TTITLE0=Jovonn - Drum Drum
TTITLE1=Mike Dunn - So Let It Be House
TTITLE2=Ron Allen - Whispers
TTITLE3=Low Key - Rain Forest
TTITLE4=Romanthony - Bring U Up
TTITLE5=G Strings - Motivation Song
TTITLE6=Ace and The Sandman - Let Your Body Talk
TTITLE7=Rodney Bakerr and The Rocking House Chicago Mob - The Numbers
TTITLE8=Mr. Lee - Pump That Body (Deep House Mix)
TTITLE9=William S - I'll Never Let You Go
TTITLE10=Vincent Floyd - I'm So Deep
TTITLE11=Naomi Daniel - Feel The Fire (Urban Culture Instrumental)
EXTD=
EXTT0=
EXTT1=
EXTT2=
EXTT3=
EXTT4=
EXTT5=
EXTT6=
EXTT7=
EXTT8=
EXTT9=
EXTT10=
EXTT11=
PLAYORDER=
